<?xml version="1.0" encoding="UTF-8" standalone="no"?>
<!-- Created with Inkscape (http://www.inkscape.org/) -->

<svg
   width="11.962018mm"
   height="11.038144mm"
   viewBox="0 0 11.962018 11.038144"
   version="1.1"
   id="svg1"
   inkscape:version="1.4.2 (ebf0e940d0, 2025-05-08)"
   sodipodi:docname="pales_eolienne2.svg"
   xmlns:inkscape="http://www.inkscape.org/namespaces/inkscape"
   xmlns:sodipodi="http://sodipodi.sourceforge.net/DTD/sodipodi-0.dtd"
   xmlns="http://www.w3.org/2000/svg"
   xmlns:svg="http://www.w3.org/2000/svg">
  <sodipodi:namedview
     id="namedview1"
     pagecolor="#ffffff"
     bordercolor="#000000"
     borderopacity="0.25"
     inkscape:showpageshadow="2"
     inkscape:pageopacity="0.0"
     inkscape:pagecheckerboard="0"
     inkscape:deskcolor="#d1d1d1"
     inkscape:document-units="mm"
     inkscape:zoom="1.7033258"
     inkscape:cx="242.46683"
     inkscape:cy="73.97293"
     inkscape:window-width="1920"
     inkscape:window-height="919"
     inkscape:window-x="0"
     inkscape:window-y="48"
     inkscape:window-maximized="1"
     inkscape:current-layer="layer1" />
  <defs
     id="defs1" />
  <g
     inkscape:label="Calque 1"
     inkscape:groupmode="layer"
     id="layer1"
     transform="translate(-98.954163,-142.875)">
    <g
       id="g5"
       transform="matrix(0.26458333,0,0,0.26458333,100.27708,145.52083)">
      <path
         d="m 22.12117,21.6682 c 0.62891,-0.32031 1.1953,-0.73828 1.6914,-1.2305 1.2109,-1.2109 1.9609,-2.8828 1.9609,-4.7305 0,-0.11719 -0.0039,-0.23438 -0.0078,-0.34766 l 6.4688,3.7344 v 0.0039 c 0.04297,0.02734 0.08984,0.05469 0.13672,0.07813 3.4609,2.0078 5.9141,4.1641 7.0859,6.4688 0.94922,1.875 1.0312,3.8945 0.07813,6.0742 l -16.195,-9.3516 c -0.05078,-0.03516 -0.10156,-0.0625 -0.15625,-0.08984 l -1.0547,-0.60938 z"
         id="path4" />
      <path
         d="m 12.40237,15.3635 c -0.0078,0.11328 -0.0078,0.23047 -0.0078,0.34375 0,1.8477 0.75,3.5195 1.9609,4.7305 0.49219,0.49219 1.0625,0.91016 1.6914,1.2305 l -1.0312,0.59766 c -0.07031,0.03125 -0.14063,0.07031 -0.20313,0.11719 -1.7852,1.0352 -3.5742,2.0664 -5.3633,3.0938 L 9.44534,25.473 9.418,25.49253 c -3.457,1.9844 -6.5469,3.0273 -9.1289,2.8867 C -1.8047,28.26595 -3.5898,27.32453 -5,25.41043 Z"
         id="path3" />
      <path
         d="m 15.30467,13.6213 c -0.0078,0.01172 -0.01172,0.02344 -0.01953,0.03125 -0.33203,0.60938 -0.51953,1.3086 -0.51953,2.0547 0,1.1914 0.48437,2.2695 1.2617,3.0508 0.78125,0.78125 1.8594,1.2617 3.0508,1.2617 1.1914,0 2.2695,-0.48438 3.0508,-1.2617 0.78125,-0.78125 1.2617,-1.8594 1.2617,-3.0508 0,-0.74219 -0.1875,-1.4453 -0.51953,-2.0547 -0.0039,-0.0078 -0.01172,-0.01953 -0.01563,-0.02734 -0.19531,-0.35547 -0.44141,-0.67969 -0.72656,-0.96484 -0.78125,-0.78125 -1.8594,-1.2617 -3.0508,-1.2617 -1.1914,0 -2.2695,0.48438 -3.0508,1.2617 -0.28516,0.28516 -0.53125,0.60938 -0.72656,0.96484 z"
         id="path2" />
      <path
         d="M 22.71877,10.094 V -10 c -2.2695,0.25391 -3.9336,1.2578 -5.0742,2.8828 -1.5195,2.1758 -2.2031,5.4883 -2.2031,9.668 v 7.5391 c 1.0469,-0.67969 2.2969,-1.0742 3.6367,-1.0742 1.3398,0 2.5898,0.39453 3.6367,1.0742 z"
         id="path1" />
    </g>
  </g>
</svg>
